{"asset":{"version":"2.0","generator":"babylon.js glTF exporter for Maya 2018 v20200312.5"},"scene":0,"scenes":[{"nodes":[0]}],"nodes":[{"children":[1],"mesh":0,"translation":[0.0,0.0106834695,0.0],"rotation":[0.707106769,0.0,0.0,0.707106769],"scale":[1.0,0.261111856,1.0],"name":"candyGeneralWrap"},{"children":[2],"mesh":1,"scale":[1.00400829,1.00400829,1.00400829],"name":"candyBodWrap"},{"mesh":2,"translation":[-1.35525269E-22,-9.16158942E-18,0.0106408177],"rotation":[-0.707106769,0.0,0.0,0.707106769],"scale":[0.99600774,0.99600774,3.81448674],"name":"wrapper"}],"meshes":[{"primitives":[{"attributes":{"POSITION":1,"TANGENT":2,"NORMAL":3,"TEXCOORD_0":4},"indices":0,"material":0}],"name":"candyGeneralWrap"},{"primitives":[{"attributes":{"POSITION":6,"TANGENT":7,"NORMAL":8,"TEXCOORD_0":9},"indices":5,"material":1}],"name":"candyBodWrap"},{"primitives":[{"attributes":{"POSITION":11,"TANGENT":12,"NORMAL":13,"TEXCOORD_0":14},"indices":10,"material":1}],"name":"wrapper"}],"accessors":[{"bufferView":0,"componentType":5123,"count":840,"type":"SCALAR","name":"accessorIndices"},{"bufferView":1,"componentType":5126,"count":240,"max":[0.0107359327,0.01974814,0.0107359337],"min":[-0.0107359346,-0.01974814,-0.0107359355],"type":"VEC3","name":"accessorPositions"},{"bufferView":2,"componentType":5126,"count":240,"type":"VEC4","name":"accessorTangents"},{"bufferView":1,"byteOffset":2880,"componentType":5126,"count":240,"type":"VEC3","name":"accessorNormals"},{"bufferView":3,"componentType":5126,"count":240,"type":"VEC2","name":"accessorUVs"},{"bufferView":0,"byteOffset":1680,"componentType":5123,"count":840,"type":"SCALAR","name":"accessorIndices"},{"bufferView":1,"byteOffset":5760,"componentType":5126,"count":240,"max":[0.0107359327,0.01974814,0.0107359337],"min":[-0.0107359346,-0.01974814,-0.0107359355],"type":"VEC3","name":"accessorPositions"},{"bufferView":2,"byteOffset":3840,"componentType":5126,"count":240,"type":"VEC4","name":"accessorTangents"},{"bufferView":1,"byteOffset":8640,"componentType":5126,"count":240,"type":"VEC3","name":"accessorNormals"},{"bufferView":3,"byteOffset":1920,"componentType":5126,"count":240,"type":"VEC2","name":"accessorUVs"},{"bufferView":0,"byteOffset":3360,"componentType":5123,"count":384,"type":"SCALAR","name":"accessorIndices"},{"bufferView":1,"byteOffset":11520,"componentType":5126,"count":132,"max":[0.02121,0.0183312465,0.00216643931],"min":[-0.0212116,0.004279282,-0.00216643931],"type":"VEC3","name":"accessorPositions"},{"bufferView":2,"byteOffset":7680,"componentType":5126,"count":132,"type":"VEC4","name":"accessorTangents"},{"bufferView":1,"byteOffset":13104,"componentType":5126,"count":132,"type":"VEC3","name":"accessorNormals"},{"bufferView":3,"byteOffset":3840,"componentType":5126,"count":132,"type":"VEC2","name":"accessorUVs"}],"bufferViews":[{"buffer":0,"byteLength":4128,"name":"bufferViewScalar"},{"buffer":0,"byteOffset":4128,"byteLength":14688,"byteStride":12,"name":"bufferViewFloatVec3"},{"buffer":0,"byteOffset":18816,"byteLength":9792,"byteStride":16,"name":"bufferViewFloatVec4"},{"buffer":0,"byteOffset":28608,"byteLength":4896,"byteStride":8,"name":"bufferViewFloatVec2"}],"buffers":[{"uri":"candy.bin","byteLength":33504}],"materials":[{"pbrMetallicRoughness":{"baseColorTexture":{"index":0},"metallicFactor":0.0,"roughnessFactor":0.201679826},"name":"candyTexture"},{"pbrMetallicRoughness":{"baseColorFactor":[1.0,1.0,1.0,0.201298714],"metallicFactor":0.0,"roughnessFactor":0.201679826},"alphaMode":"BLEND","name":"candyWrapper"}],"textures":[{"sampler":0,"source":0,"name":"candyTexture.png"}],"images":[{"uri":"candyTexture.png"}],"samplers":[{"magFilter":9729,"minFilter":9987}]}