{"asset":{"version":"2.0","generator":"babylon.js glTF exporter for Maya 2018 v20200312.5"},"scene":0,"scenes":[{"nodes":[0]}],"nodes":[{"mesh":0,"name":"pCube2"}],"meshes":[{"primitives":[{"attributes":{"POSITION":1,"TANGENT":2,"NORMAL":3,"TEXCOORD_0":4},"indices":0,"material":0},{"attributes":{"POSITION":6,"TANGENT":7,"NORMAL":8,"TEXCOORD_0":9},"indices":5,"material":1}],"name":"pCube2"}],"accessors":[{"bufferView":0,"componentType":5123,"count":1032,"type":"SCALAR","name":"accessorIndices"},{"bufferView":1,"componentType":5126,"count":248,"max":[0.0193833634,0.05468684,0.0176066291],"min":[-0.0193833634,0.0225995723,-0.0176066291],"type":"VEC3","name":"accessorPositions"},{"bufferView":2,"componentType":5126,"count":248,"type":"VEC4","name":"accessorTangents"},{"bufferView":1,"byteOffset":2976,"componentType":5126,"count":248,"type":"VEC3","name":"accessorNormals"},{"bufferView":3,"componentType":5126,"count":248,"type":"VEC2","name":"accessorUVs"},{"bufferView":0,"byteOffset":2064,"componentType":5123,"count":768,"type":"SCALAR","name":"accessorIndices"},{"bufferView":1,"byteOffset":5952,"componentType":5126,"count":190,"max":[0.007821782,0.03390825,0.009025209],"min":[-0.007936569,0.000143915415,-0.008954315],"type":"VEC3","name":"accessorPositions"},{"bufferView":2,"byteOffset":3968,"componentType":5126,"count":190,"type":"VEC4","name":"accessorTangents"},{"bufferView":1,"byteOffset":8232,"componentType":5126,"count":190,"type":"VEC3","name":"accessorNormals"},{"bufferView":3,"byteOffset":1984,"componentType":5126,"count":190,"type":"VEC2","name":"accessorUVs"}],"bufferViews":[{"buffer":0,"byteLength":3600,"name":"bufferViewScalar"},{"buffer":0,"byteOffset":3600,"byteLength":10512,"byteStride":12,"name":"bufferViewFloatVec3"},{"buffer":0,"byteOffset":14112,"byteLength":7008,"byteStride":16,"name":"bufferViewFloatVec4"},{"buffer":0,"byteOffset":21120,"byteLength":3504,"byteStride":8,"name":"bufferViewFloatVec2"}],"buffers":[{"uri":"tree.bin","byteLength":24624}],"materials":[{"pbrMetallicRoughness":{"baseColorFactor":[0.3588,0.5783,0.0453,1.0],"metallicFactor":0.0,"roughnessFactor":0.450053632},"name":"treeTop"},{"pbrMetallicRoughness":{"baseColorFactor":[0.2916,0.1127,0.0,1.0],"metallicFactor":0.0,"roughnessFactor":0.450053632},"name":"treeTrunk"}]}